#!OML:ASF F:\VICON\USERDATA\INSTALL\rory3\rory3.ASF
:FULLY-SPECIFIED
:DEGREES
30
root 1.0728671871177111 17.99253168878713 -2.5697463907293265 -4.145694166985676 0.5998578258042679 1.4026675275328593
lfemur -0.7307243696539976 -2.706872759742901 -26.709076092187114
ltibia 25.464561123629615
lfoot -9.558016684815946 1.6417568335357302
ltoes -5.994223684313381
rfemur -24.74194519979391 -2.708253137145447 20.989678152042742
rtibia 70.86838765210426
rfoot -2.835629068590957 -9.954242781521979
rtoes 8.563945665094796
lowerback 11.679522484384503 -0.014103916255615662 -2.644003517477869
upperback 0.3433898646818777 -0.32324913591239496 0.8957016853256671
thorax -5.730077525621002 -0.1371639209460177 2.0280376984965356
lowerneck -16.172764477398456 -3.2166199711369394 -2.3478687587426594
upperneck 21.37022660747011 -4.112929912691043 0.7850641704943253
head 9.513030788984842 -1.9884327882717465 0.08359295951242887
lclavicle -2.027578773089717e-15 -7.124576288755567e-16
lhumerus -27.862955421260352 2.841280048511555 79.646348181806
lradius 21.704776388317676
lwrist 6.889920309139821
lhand -29.924402264334525 19.714576091332013
lfingers 7.12502
lthumb -3.4497706082512956 49.708894576638336
rclavicle -2.0286792696786695e-15 -7.131522745146171e-16
rhumerus -31.252181597597456 -20.671293754610783 -78.44797641491448
rradius 28.88637392939771
rwrist 4.000905046809803
rhand -17.15745976221291 20.345854039228104
rfingers 7.12502
rthumb 9.134020741642 -9.101130309042283
31
root 1.070281609655596 17.92158201957132 -1.5242674546387658 -3.7862509548356025 1.5170199950761667 1.8768597877959126
lfemur 2.876264574750264 -2.665662081776837 -27.482121638893638
ltibia 23.7232034817013
lfoot -11.76406045632747 2.3409751504987417
ltoes -6.894024161583139
rfemur -28.24813131494642 -2.7122169454677225 20.246303267151955
rtibia 65.89508089117832
rfoot -6.315401275737926 -9.45750868689912
rtoes 3.8471293959760144
lowerback 11.777093172794109 -0.4572784709138751 -3.355416275956167
upperback 0.31313606795605553 -0.9918541895071809 1.027022828509577
thorax -5.846767936937682 -0.4653330162694101 2.8101975482019714
lowerneck -16.249767834328143 -3.2550231853586284 -2.6534594569480556
upperneck 21.254414727721162 -4.149393343414422 1.0570194070119965
head 9.497849195677242 -1.9857999108384363 0.1813676730129002
lclavicle -2.0251985687700894e-15 -7.109365131795476e-16
lhumerus -26.38214061528963 0.7400263821308353 79.82022315101833
lradius 23.90563930553069
lwrist 8.152437485668981
lhand -30.211625275821866 19.78688819085996
lfingers 7.12502
lthumb -3.799179229411327 49.4719482593075
rclavicle -2.0280380204390438e-15 -7.127429238215536e-16
rhumerus -32.776915051087535 -20.526715874722903 -78.29302360555528
rradius 29.592573838269413
rwrist 2.695049412372448
rhand -17.721355299682347 21.702755507565076
rfingers 7.12502
rthumb 8.552851481387101 -7.507778773888514
32
root 1.0504486142360125 17.908644382892952 -0.7753259511466197 -3.03164957489768 2.2497140170453873 2.3526170231349086
lfemur 6.669938026939777 -2.4998023733506027 -27.903294705140652
ltibia 20.152051541729932
lfoot -12.698015624551909 1.9957020711959368
ltoes -6.003433690418329
rfemur -29.94434037827935 -1.5657964405010127 19.2269730074822
rtibia 56.88393594544512
rfoot -6.9988939116722095 -10.589466676667579
rtoes -1.5359762794981
lowerback 11.463517802047436 -0.7050916504643503 -4.1501927329820365
upperback 0.24878274596464742 -1.4943457571402783 1.0641085580835539
thorax -5.7650136548681505 -0.677461044096515 3.6713399985351947
lowerneck -16.205087641531428 -3.342363072191369 -2.8967277411171017
upperneck 21.16388954956843 -4.307619062234378 1.519647774960084
head 9.466952774926876 -2.020881057330388 0.33504324167749144
lclavicle -2.025215603013792e-15 -7.109495230798245e-16
lhumerus -25.07578875236107 -1.1291363875242837 79.84434374346314
lradius 26.257424051151244
lwrist 9.576453293602764
lhand -30.57420998579191 21.124662496175198
lfingers 7.12502
lthumb -4.2291546627370336 50.41464977930823
rclavicle -2.0274336606615975e-15 -7.123569857284363e-16
rhumerus -33.91098411948374 -20.473410793538523 -77.9970754620364
rradius 29.71077257745157
rwrist 2.02549791102334
rhand -17.811874669302245 22.148399063332956
rfingers 7.12502
rthumb 8.388766719695084 -7.348414032278078
33
root 1.01050553093486 17.932019504239403 -0.013421589428132208 -2.0087017351466576 2.6694997850032434 2.4637655613270395
lfemur 10.481304986104503 -2.2184019026020865 -27.804945210013933
ltibia 15.885937715585268
lfoot -12.157509602982792 0.5556431437295726
ltoes -6.404855575653505
rfemur -30.014593230375567 1.1158389082400082 17.9102980668197
rtibia 43.90282897912286
rfoot -4.978645967092746 -12.71128603374341
rtoes -2.1342848768988225
lowerback 10.810110901133248 -0.8548005979652877 -4.750403746678255
upperback 0.08249161565034152 -1.80256730090815 1.164287198022259
thorax -5.607131298025031 -0.8002845144156074 4.336513653774741
lowerneck -16.252181112890394 -3.3632977152724983 -3.0119547180023876
upperneck 21.16323919597142 -4.3679153038237 1.7340160956240576
head 9.49276988596452 -2.0273630065744093 0.3981414349585838
lclavicle -2.0249470139547345e-15 -7.107843163867354e-16
lhumerus -24.13462505718831 -1.9367434806633348 79.6943014736017
lradius 28.299583769602375
lwrist 10.863453864735222
lhand -30.605621857575855 21.872461160183178
lfingers 7.12502
lthumb -4.333166032653162 51.342308337751284
rclavicle -2.0268570589199328e-15 -7.119887470358266e-16
rhumerus -34.978579677394634 -21.189781516018154 -77.28558659595436
rradius 29.12478308527781
rwrist 2.2006391984286138
rhand -17.830687013725665 22.87601314137066
rfingers 7.12502
rthumb 8.597637226136554 -6.920268314313168
34
root 0.9552860744195709 17.909197224955015 0.7366708461052784 -1.3452094457739578 3.2955372083197743 2.814431792433534
lfemur 14.031581332187207 -2.2483476045697652 -27.57071726866333
ltibia 13.537499428383708
lfoot -10.878050647695158 -1.677082466586088
ltoes -7.240667083308097
rfemur -29.07158531802631 4.681184615230401 15.788204180635711
rtibia 29.586428456763496
rfoot -3.461586500689119 -15.538225094254717
rtoes -3.071611009119985
lowerback 10.323150901028944 -1.0767264957554348 -5.392917458812282
upperback -0.0654399374813208 -2.2046509848603253 1.1915175748898337
thorax -5.51704254177831 -0.976543279711682 4.924184208101699
lowerneck -16.371763667018982 -3.355502765002994 -3.0472479724664367
upperneck 21.247476030497197 -4.352262932353049 1.869270734017344
head 9.541267807738423 -2.0165266530955233 0.44329258486446654
lclavicle -2.0235303264948448e-15 -7.098807883840144e-16
lhumerus -23.353556318467113 -2.514191156575788 79.63029558242344
lradius 29.98472429708001
lwrist 11.847408789037587
lhand -30.336608144689446 20.13176051717988
lfingers 7.12502
lthumb -3.882935722576133 49.84600166024628
rclavicle -2.026856109288346e-15 -7.119881588947527e-16
rhumerus -35.99793065326076 -22.532253410803577 -76.10873029349844
rradius 27.993024778252288
rwrist 3.0885067196655593
rhand -17.63839099685932 22.80033712415228
rfingers 7.12502
rthumb 8.572231196478553 -7.198823251251212
35
root 0.8842994895785518 17.864374041564595 1.6521704979381955 -1.1233829580714163 4.0726475574953245 2.651845253931409
lfemur 16.20809068950664 -2.8415379421096194 -26.813226300652307
ltibia 15.267369812309209
lfoot -9.299282431417142 -4.594081538952528
ltoes -9.221762673313156
rfemur -28.505635508475383 5.185508042453865 15.803283594261934
rtibia 19.814704904242188
rfoot -5.42688334772473 -17.99301670911064
rtoes -6.211424315463422
lowerback 10.197594458487544 -1.2999541354212334 -5.395197170497929
upperback -0.11620688939252374 -2.4785213550595526 1.3368854312979108
thorax -5.46831772072155 -1.0804762972972464 5.276881532306062
lowerneck -16.49270569042562 -3.328078703898376 -3.0806955883379956
upperneck 21.33697056444313 -4.301614688008144 1.9057849452275828
head 9.603774371455481 -1.99513100767739 0.4670905064121349
lclavicle -2.0240130299905354e-15 -7.101886062704053e-16
lhumerus -22.972606649537266 -3.1539888210119216 79.91134042997074
lradius 31.192828703564974
lwrist 12.365299530616115
lhand -30.640825098524427 18.87731236480063
lfingers 7.12502
lthumb -4.032445736595114 48.403094307783505
rclavicle -2.0273421881558534e-15 -7.122985089626768e-16
rhumerus -36.91730139499985 -24.01431937548608 -74.72396231347976
rradius 26.50752936533432
rwrist 4.344672663095844
rhand -17.429926723676562 23.052695254244917
rfingers 7.12502
rthumb 8.575251705581136 -6.944086328941066
36
root 0.816978805823654 17.787856834959747 2.723748344834873 -1.5649329042601297 3.964558837585376 2.1490446141843877
lfemur 16.83961119610327 -3.6680101151617635 -26.021367960863856
ltibia 20.751483516895988
lfoot -7.793750661627506 -7.439188097048642
ltoes -12.83381685438112
rfemur -28.743050147271596 2.8050338355690543 18.227654677785765
rtibia 19.84636917770144
rfoot -7.402515773622273 -15.04964529095972
rtoes -7.733933031963501
lowerback 10.386163565431552 -1.2621364745926698 -5.072215032007609
upperback -0.013493974899696101 -2.4038290812992074 1.5531357229396507
thorax -5.518182063631376 -1.0521404968930987 5.309432635037631
lowerneck -16.613810732205113 -3.2668161223582413 -3.076653013615414
upperneck 21.362112123763506 -4.16507680149093 1.748057086466061
head 9.61291710201222 -1.9495012579613356 0.4437698149742565
lclavicle -2.0246015444886303e-15 -7.105619887106625e-16
lhumerus -23.304519646584783 -2.8772855456778714 80.26224166609869
lradius 31.776663652116532
lwrist 12.13315609087459
lhand -31.072194729457955 18.10342874423439
lfingers 7.12502
lthumb -4.619318861481606 47.60606472167149
rclavicle -2.0255787275867316e-15 -7.11172474672273e-16
rhumerus -37.87418543365048 -25.744567797421805 -73.14722282035312
rradius 24.709698278679674
rwrist 6.047560946074254
rhand -17.714614973565457 22.545839523872164
rfingers 7.12502
rthumb 8.262540308511758 -7.523321354267552
